<svg xmlns="http://www.w3.org/2000/svg" version="1.1" xmlns:xlink="http://www.w3.org/1999/xlink" xmlns:svgjs="http://svgjs.com/svgjs" width="1440" height="560" preserveAspectRatio="none" viewBox="0 0 1440 560"><g mask="url(&quot;#SvgjsMask1040&quot;)" fill="none"><rect width="1440" height="560" x="0" y="0" fill="rgba(68, 11, 43, 1)"></rect><path d="M0,544.94C125.477,579.341,271.566,663.173,379.661,590.763C488.265,518.012,449.073,346.952,483.722,220.909C511.915,118.349,565.19,25.219,564.363,-81.143C563.452,-198.353,547.893,-320.195,478.78,-414.865C407.092,-513.062,300.042,-599.196,178.872,-609.182C61.311,-618.871,-28.45,-512.435,-136.71,-465.592C-228.607,-425.829,-329.26,-414.817,-409.319,-354.677C-503.664,-283.805,-616.888,-207.9,-634.973,-91.295C-653.065,25.353,-569.368,132.907,-499.725,228.217C-439.81,310.213,-351.693,359.408,-265.916,413.773C-180.709,467.777,-97.289,518.267,0,544.94" fill="#360922"></path><path d="M1440 1049.502C1530.786 1030.649 1615.355 1003.5640000000001 1697.83 961.191 1788.609 914.552 1900.926 882.688 1944.407 790.355 1987.937 697.918 1922.441 593.224 1919.204 491.101 1915.4270000000001 371.96000000000004 1992.23 238.38400000000001 1923.817 140.76999999999998 1856.1770000000001 44.259000000000015 1710.356 57.03899999999999 1595.746 29.576000000000022 1487.253 3.578999999999951 1378.33-46 1270.969-15.666000000000054 1163.231 14.774999999999977 1094.248 112.46199999999999 1016.677 193.18900000000002 934.829 278.366 821.255 351.7 805.473 468.769 789.706 585.729 884.917 683.784 936.212 790.072 986.267 893.79 1000.367 1032.041 1102.754 1084.766 1205.319 1137.583 1327.045 1072.9589999999998 1440 1049.502" fill="#520d34"></path></g><defs><mask id="SvgjsMask1040"><rect width="1440" height="560" fill="#ffffff"></rect></mask></defs></svg>